<svg width="640" height="640" viewBox="0 0 640 640" fill="none" xmlns="http://www.w3.org/2000/svg">
  <defs>
    <radialGradient id="bg" cx="0" cy="0" r="1" gradientUnits="userSpaceOnUse" gradientTransform="translate(330 210) rotate(90) scale(280)">
      <stop stop-color="#F5FBFF" stop-opacity="0.35"/>
      <stop offset="1" stop-color="#0E1A2D" stop-opacity="0"/>
    </radialGradient>
    <radialGradient id="leaf1" cx="0" cy="0" r="1" gradientUnits="userSpaceOnUse" gradientTransform="translate(0.35 0.3) scale(1)">
      <stop stop-color="#D9FF91"/>
      <stop offset="1" stop-color="#8FD83C"/>
    </radialGradient>
    <linearGradient id="trunk" x1="250" y1="260" x2="360" y2="510" gradientUnits="userSpaceOnUse">
      <stop stop-color="#A57A43"/>
      <stop offset="1" stop-color="#604123"/>
    </linearGradient>
    <linearGradient id="pot" x1="170" y1="430" x2="470" y2="560" gradientUnits="userSpaceOnUse">
      <stop stop-color="#2A446F"/>
      <stop offset="1" stop-color="#172A47"/>
    </linearGradient>
    <filter id="soft" x="0" y="0" width="640" height="640" filterUnits="userSpaceOnUse" color-interpolation-filters="sRGB">
      <feGaussianBlur stdDeviation="20"/>
    </filter>
  </defs>

  <ellipse cx="320" cy="330" rx="220" ry="170" fill="url(#bg)"/>
  <ellipse cx="320" cy="540" rx="160" ry="35" fill="#0C1930" opacity="0.45"/>

  <path d="M298 296C305 258 326 238 352 224C379 210 401 199 411 168" stroke="url(#trunk)" stroke-width="22" stroke-linecap="round"/>
  <path d="M310 320C312 280 300 250 268 230C245 216 225 206 210 184" stroke="url(#trunk)" stroke-width="16" stroke-linecap="round"/>
  <path d="M330 340C356 310 389 297 425 300C452 302 474 313 493 332" stroke="url(#trunk)" stroke-width="12" stroke-linecap="round"/>
  <path d="M298 300C270 338 255 381 250 430" stroke="url(#trunk)" stroke-width="25" stroke-linecap="round"/>

  <g filter="url(#soft)" opacity="0.5">
    <ellipse cx="256" cy="188" rx="70" ry="45" fill="#B8FF4E"/>
    <ellipse cx="392" cy="182" rx="80" ry="50" fill="#B8FF4E"/>
    <ellipse cx="454" cy="266" rx="70" ry="45" fill="#B8FF4E"/>
    <ellipse cx="214" cy="262" rx="74" ry="46" fill="#B8FF4E"/>
    <ellipse cx="330" cy="145" rx="92" ry="58" fill="#B8FF4E"/>
  </g>

  <ellipse cx="330" cy="145" rx="92" ry="58" fill="url(#leaf1)"/>
  <ellipse cx="256" cy="188" rx="70" ry="45" fill="url(#leaf1)"/>
  <ellipse cx="392" cy="182" rx="80" ry="50" fill="url(#leaf1)"/>
  <ellipse cx="454" cy="266" rx="70" ry="45" fill="url(#leaf1)"/>
  <ellipse cx="214" cy="262" rx="74" ry="46" fill="url(#leaf1)"/>
  <ellipse cx="330" cy="230" rx="96" ry="62" fill="url(#leaf1)"/>

  <path d="M179 444C179 424 195 408 215 408H425C445 408 461 424 461 444V498C461 535 431 565 394 565H246C209 565 179 535 179 498V444Z" fill="url(#pot)"/>
  <rect x="162" y="426" width="316" height="32" rx="16" fill="#2F4E7D"/>
  <rect x="184" y="447" width="272" height="16" rx="8" fill="#3E5E8E" opacity="0.5"/>

  <ellipse cx="250" cy="468" rx="26" ry="10" fill="#D9E6F9" opacity="0.26"/>
  <ellipse cx="315" cy="472" rx="18" ry="8" fill="#D9E6F9" opacity="0.22"/>
  <ellipse cx="382" cy="469" rx="24" ry="9" fill="#D9E6F9" opacity="0.24"/>
</svg>
