<svg width="920" height="620" viewBox="0 0 920 620" fill="none" xmlns="http://www.w3.org/2000/svg">
  <defs>
    <linearGradient id="bg" x1="0" y1="0" x2="920" y2="620" gradientUnits="userSpaceOnUse">
      <stop stop-color="#F5F8FF"/>
      <stop offset="1" stop-color="#E9F0FF"/>
    </linearGradient>
  </defs>
  <rect x="15" y="15" width="890" height="590" rx="36" fill="url(#bg)" stroke="#CBD5E1" stroke-width="2"/>
  <rect x="48" y="52" width="220" height="516" rx="24" fill="#DDE8FF"/>
  <rect x="295" y="52" width="577" height="78" rx="20" fill="#FFFFFF"/>
  <rect x="320" y="78" width="220" height="20" rx="10" fill="#CBD5E1"/>
  <rect x="295" y="148" width="274" height="180" rx="24" fill="#FFFFFF"/>
  <rect x="588" y="148" width="284" height="180" rx="24" fill="#FFFFFF"/>
  <rect x="295" y="346" width="577" height="222" rx="24" fill="#FFFFFF"/>
  <rect x="322" y="378" width="310" height="14" rx="7" fill="#D1D5DB"/>
  <rect x="322" y="407" width="480" height="10" rx="5" fill="#E5E7EB"/>
  <rect x="322" y="430" width="450" height="10" rx="5" fill="#E5E7EB"/>
  <rect x="322" y="453" width="500" height="10" rx="5" fill="#E5E7EB"/>
  <rect x="322" y="490" width="180" height="48" rx="16" fill="#B8FF4E"/>
  <text x="352" y="522" fill="#0B1220" font-family="Arial, sans-serif" font-size="18" font-weight="700">Export</text>
</svg>
