<svg width="900" height="620" viewBox="0 0 900 620" fill="none" xmlns="http://www.w3.org/2000/svg">
  <defs>
    <linearGradient id="g1" x1="0" y1="0" x2="900" y2="620" gradientUnits="userSpaceOnUse">
      <stop stop-color="#101826"/>
      <stop offset="1" stop-color="#1a2335"/>
    </linearGradient>
    <linearGradient id="g2" x1="0" y1="0" x2="280" y2="180" gradientUnits="userSpaceOnUse">
      <stop stop-color="#B8FF4E"/>
      <stop offset="1" stop-color="#9DE339"/>
    </linearGradient>
  </defs>
  <rect x="20" y="20" width="860" height="580" rx="42" fill="url(#g1)" stroke="#2F3A4E" stroke-width="2"/>
  <rect x="70" y="80" width="470" height="280" rx="28" fill="#0B1220" stroke="#334155"/>
  <rect x="95" y="108" width="175" height="16" rx="8" fill="#334155"/>
  <rect x="95" y="140" width="250" height="10" rx="5" fill="#1F2937"/>
  <rect x="95" y="162" width="210" height="10" rx="5" fill="#1F2937"/>
  <rect x="95" y="210" width="420" height="120" rx="20" fill="#111827"/>
  <rect x="582" y="95" width="250" height="220" rx="24" fill="#0B1220" stroke="#334155"/>
  <rect x="605" y="120" width="140" height="14" rx="7" fill="#334155"/>
  <rect x="605" y="148" width="180" height="10" rx="5" fill="#1F2937"/>
  <rect x="605" y="176" width="130" height="10" rx="5" fill="#1F2937"/>
  <rect x="95" y="400" width="310" height="145" rx="24" fill="#111827" stroke="#334155"/>
  <rect x="430" y="400" width="402" height="145" rx="24" fill="url(#g2)"/>
  <text x="465" y="486" fill="#0B1220" font-family="Arial, sans-serif" font-size="34" font-weight="700">Bons AI</text>
</svg>
